<?xml version="1.0" encoding="UTF-8"?>
<svg xmlns="http://www.w3.org/2000/svg" viewBox="0 0 2402 372" width="2402" height="372" fill-rule="evenodd" clip-rule="evenodd" shape-rendering="geometricPrecision">
  <title>WindieOS wind flourish</title>
  <path d="M 12 175 L 13 183 L 19 188 L 54 206 L 102 225 L 156 242 L 231 259 L 236 259 L 261 264 L 267 264 L 268 265 L 274 265 L 275 266 L 281 266 L 282 267 L 297 268 L 298 269 L 331 271 L 332 272 L 347 272 L 348 273 L 370 273 L 371 274 L 406 273 L 407 275 L 401 278 L 400 280 L 400 284 L 404 289 L 438 297 L 468 300 L 469 301 L 478 301 L 479 302 L 491 302 L 492 303 L 513 303 L 514 304 L 574 303 L 575 302 L 596 301 L 597 300 L 605 300 L 606 299 L 614 299 L 615 298 L 642 295 L 694 285 L 699 283 L 739 275 L 748 272 L 752 272 L 761 269 L 765 269 L 774 266 L 796 262 L 841 251 L 866 247 L 872 245 L 895 242 L 896 241 L 910 240 L 911 239 L 943 237 L 944 236 L 967 236 L 968 235 L 1024 237 L 1025 238 L 1024 240 L 1016 241 L 999 248 L 988 256 L 981 263 L 971 280 L 967 297 L 967 306 L 968 307 L 969 317 L 973 327 L 981 339 L 997 352 L 1010 357 L 1020 359 L 1037 358 L 1046 355 L 1057 349 L 1066 340 L 1073 325 L 1072 314 L 1069 309 L 1065 307 L 1059 308 L 1046 321 L 1040 324 L 1032 326 L 1026 326 L 1018 323 L 1012 319 L 1006 311 L 1004 305 L 1004 297 L 1009 287 L 1017 279 L 1024 275 L 1035 271 L 1045 270 L 1046 269 L 1074 269 L 1075 270 L 1090 271 L 1091 272 L 1108 274 L 1180 291 L 1191 291 L 1193 289 L 1193 286 L 1195 285 L 1207 291 L 1221 295 L 1224 297 L 1266 310 L 1306 320 L 1311 320 L 1340 326 L 1367 328 L 1368 329 L 1381 329 L 1382 330 L 1424 330 L 1425 329 L 1438 329 L 1439 328 L 1464 326 L 1476 323 L 1481 323 L 1498 318 L 1502 318 L 1541 306 L 1560 297 L 1568 292 L 1571 288 L 1577 288 L 1578 289 L 1598 291 L 1599 292 L 1609 292 L 1610 293 L 1653 293 L 1654 292 L 1664 292 L 1665 291 L 1687 289 L 1751 275 L 1755 273 L 1777 268 L 1824 254 L 1881 240 L 1933 230 L 1963 227 L 1964 226 L 1974 226 L 1975 225 L 2015 224 L 2016 225 L 2045 226 L 2046 227 L 2068 229 L 2104 237 L 2137 248 L 2156 256 L 2183 270 L 2220 293 L 2227 296 L 2232 296 L 2235 294 L 2237 289 L 2236 283 L 2229 272 L 2216 257 L 2205 247 L 2184 231 L 2166 220 L 2164 218 L 2165 216 L 2180 222 L 2191 228 L 2198 230 L 2223 243 L 2246 253 L 2251 253 L 2254 250 L 2253 243 L 2255 242 L 2268 251 L 2298 267 L 2325 277 L 2335 279 L 2353 279 L 2363 277 L 2371 273 L 2384 260 L 2387 254 L 2389 245 L 2388 233 L 2386 227 L 2381 219 L 2374 213 L 2363 208 L 2354 207 L 2353 208 L 2348 208 L 2339 212 L 2333 218 L 2330 225 L 2332 235 L 2328 236 L 2230 189 L 2214 183 L 2194 178 L 2183 179 L 2174 173 L 2147 160 L 2128 152 L 2101 143 L 2079 137 L 2048 131 L 2026 129 L 2025 128 L 2016 128 L 2015 127 L 1995 127 L 1994 126 L 1960 127 L 1959 128 L 1948 128 L 1940 130 L 1932 130 L 1931 131 L 1899 135 L 1852 144 L 1843 147 L 1834 148 L 1801 157 L 1789 159 L 1785 161 L 1766 165 L 1762 167 L 1690 185 L 1682 188 L 1678 188 L 1618 203 L 1573 212 L 1568 212 L 1562 214 L 1556 214 L 1555 215 L 1549 215 L 1548 216 L 1542 216 L 1527 219 L 1494 221 L 1493 222 L 1450 222 L 1449 221 L 1435 221 L 1434 220 L 1426 220 L 1425 219 L 1407 217 L 1393 213 L 1389 213 L 1371 207 L 1354 199 L 1342 191 L 1329 178 L 1323 168 L 1320 153 L 1322 143 L 1325 136 L 1336 124 L 1348 119 L 1356 119 L 1366 123 L 1373 131 L 1377 141 L 1377 154 L 1373 161 L 1367 166 L 1357 167 L 1355 169 L 1354 174 L 1358 178 L 1363 180 L 1375 180 L 1388 175 L 1394 171 L 1402 163 L 1409 150 L 1411 143 L 1412 129 L 1411 128 L 1410 117 L 1404 102 L 1398 93 L 1383 79 L 1369 72 L 1356 69 L 1343 69 L 1333 71 L 1324 74 L 1310 82 L 1295 96 L 1287 108 L 1282 119 L 1276 140 L 1275 161 L 1280 181 L 1286 194 L 1295 207 L 1314 226 L 1323 233 L 1354 250 L 1379 260 L 1405 268 L 1436 274 L 1451 275 L 1460 277 L 1471 277 L 1472 278 L 1513 278 L 1514 279 L 1513 281 L 1486 282 L 1485 283 L 1434 283 L 1433 282 L 1417 282 L 1416 281 L 1387 279 L 1386 278 L 1372 277 L 1371 276 L 1327 269 L 1260 252 L 1253 249 L 1247 248 L 1246 246 L 1249 245 L 1282 254 L 1311 259 L 1316 261 L 1351 268 L 1355 267 L 1357 264 L 1356 259 L 1343 248 L 1322 236 L 1299 226 L 1280 213 L 1251 199 L 1173 168 L 1123 151 L 1116 150 L 1102 145 L 1079 140 L 1071 137 L 1036 130 L 1018 128 L 1017 127 L 1010 127 L 1009 126 L 1002 126 L 993 124 L 984 124 L 983 123 L 974 123 L 973 122 L 947 121 L 946 120 L 888 119 L 887 120 L 857 120 L 856 121 L 813 123 L 812 124 L 777 127 L 776 128 L 770 128 L 769 129 L 763 129 L 762 130 L 756 130 L 755 131 L 749 131 L 736 134 L 706 138 L 641 151 L 636 153 L 627 154 L 585 164 L 580 164 L 574 166 L 569 166 L 544 171 L 531 172 L 530 173 L 504 175 L 503 176 L 491 176 L 490 177 L 476 177 L 475 178 L 441 178 L 440 177 L 418 176 L 417 175 L 410 175 L 409 174 L 392 172 L 368 166 L 346 158 L 330 150 L 315 140 L 302 127 L 294 113 L 291 98 L 292 97 L 292 89 L 298 75 L 305 67 L 312 62 L 324 58 L 335 58 L 345 62 L 355 72 L 360 84 L 359 100 L 355 107 L 348 113 L 340 113 L 338 115 L 338 119 L 341 123 L 347 125 L 354 125 L 364 121 L 370 117 L 378 109 L 385 97 L 389 81 L 389 69 L 385 52 L 378 38 L 361 21 L 349 15 L 337 12 L 318 12 L 309 14 L 301 17 L 285 26 L 273 37 L 261 54 L 254 70 L 249 93 L 249 111 L 250 112 L 251 122 L 258 141 L 270 159 L 280 169 L 296 181 L 323 194 L 354 203 L 370 206 L 376 206 L 377 207 L 395 208 L 396 209 L 437 209 L 438 208 L 451 208 L 452 207 L 463 207 L 464 206 L 475 206 L 476 205 L 505 203 L 506 202 L 528 200 L 529 199 L 535 199 L 536 201 L 529 203 L 515 204 L 514 205 L 482 209 L 468 212 L 423 216 L 422 217 L 372 219 L 371 220 L 302 220 L 301 219 L 284 219 L 283 218 L 270 218 L 269 217 L 226 214 L 225 213 L 218 213 L 197 209 L 184 208 L 105 192 L 24 171 L 17 171 Z M 1335 256 L 1332 257 L 1325 254 L 1308 250 L 1305 248 L 1296 247 L 1289 244 L 1281 243 L 1252 234 L 1240 232 L 1233 229 L 1221 227 L 1217 225 L 1206 223 L 1203 221 L 1195 220 L 1173 213 L 1161 211 L 1137 204 L 1118 201 L 1105 197 L 1084 194 L 1080 192 L 1073 192 L 1064 189 L 1059 189 L 1040 185 L 1038 186 L 1037 185 L 1016 183 L 1015 182 L 989 180 L 988 179 L 963 179 L 962 178 L 928 178 L 927 179 L 922 179 L 920 178 L 919 179 L 904 179 L 896 181 L 891 180 L 890 181 L 881 181 L 873 183 L 850 185 L 837 188 L 823 189 L 819 191 L 814 191 L 792 196 L 781 197 L 778 199 L 764 201 L 755 204 L 745 205 L 738 208 L 734 208 L 725 211 L 720 211 L 716 213 L 700 216 L 687 220 L 682 220 L 670 224 L 646 228 L 642 230 L 638 230 L 624 234 L 608 236 L 599 239 L 579 242 L 573 244 L 566 244 L 561 246 L 556 246 L 537 250 L 522 251 L 515 253 L 482 256 L 481 257 L 447 259 L 446 260 L 430 260 L 429 261 L 424 260 L 422 261 L 399 261 L 398 262 L 354 261 L 353 260 L 349 261 L 348 260 L 301 257 L 300 256 L 284 255 L 271 252 L 264 252 L 253 249 L 246 249 L 234 246 L 229 246 L 225 244 L 209 242 L 141 225 L 135 222 L 123 219 L 99 210 L 96 210 L 83 204 L 80 204 L 78 202 L 75 202 L 73 200 L 70 200 L 68 198 L 60 196 L 56 194 L 55 192 L 57 191 L 61 193 L 69 194 L 78 198 L 90 200 L 106 205 L 112 205 L 124 209 L 129 209 L 134 211 L 139 211 L 169 218 L 177 218 L 188 221 L 196 221 L 209 224 L 227 225 L 228 226 L 236 226 L 246 228 L 256 228 L 266 230 L 267 229 L 269 230 L 279 230 L 280 231 L 285 230 L 286 231 L 298 231 L 299 232 L 369 232 L 370 231 L 417 229 L 418 228 L 428 228 L 429 227 L 447 226 L 448 225 L 459 225 L 460 224 L 468 224 L 475 222 L 490 221 L 498 219 L 500 220 L 512 217 L 532 215 L 537 213 L 548 212 L 553 210 L 569 208 L 573 206 L 582 205 L 587 203 L 592 203 L 596 201 L 601 201 L 626 194 L 632 194 L 648 190 L 651 188 L 661 187 L 664 185 L 674 184 L 686 180 L 699 178 L 702 176 L 711 175 L 719 172 L 724 172 L 727 170 L 742 168 L 769 161 L 775 161 L 818 152 L 826 152 L 839 149 L 841 150 L 855 147 L 887 145 L 888 144 L 891 145 L 892 144 L 915 144 L 916 143 L 974 144 L 975 145 L 986 145 L 987 146 L 1012 148 L 1037 153 L 1056 155 L 1066 157 L 1070 159 L 1085 161 L 1124 171 L 1169 186 L 1172 188 L 1201 198 L 1203 200 L 1209 201 L 1219 206 L 1229 209 L 1234 212 L 1241 214 L 1243 216 L 1251 218 L 1265 225 L 1277 229 L 1281 232 L 1286 233 L 1293 237 L 1302 240 L 1308 244 L 1334 254 Z M 1287 149 L 1288 148 L 1288 141 L 1291 130 L 1293 127 L 1293 124 L 1301 110 L 1315 96 L 1328 89 L 1345 85 L 1352 85 L 1366 88 L 1377 94 L 1386 102 L 1392 110 L 1397 120 L 1399 129 L 1399 142 L 1397 151 L 1393 159 L 1381 170 L 1371 174 L 1362 174 L 1361 173 L 1362 171 L 1365 171 L 1376 165 L 1383 155 L 1385 149 L 1385 137 L 1382 129 L 1375 119 L 1362 111 L 1354 109 L 1347 109 L 1336 112 L 1323 121 L 1319 126 L 1312 142 L 1311 161 L 1316 176 L 1320 183 L 1335 199 L 1343 205 L 1366 217 L 1369 217 L 1387 224 L 1395 225 L 1403 228 L 1419 230 L 1424 232 L 1426 231 L 1427 232 L 1442 233 L 1443 234 L 1445 233 L 1446 234 L 1457 234 L 1458 235 L 1474 235 L 1475 234 L 1500 234 L 1501 233 L 1505 234 L 1506 233 L 1525 232 L 1531 230 L 1538 230 L 1539 229 L 1553 228 L 1566 225 L 1573 225 L 1583 222 L 1605 219 L 1609 217 L 1615 217 L 1628 213 L 1638 212 L 1658 207 L 1666 204 L 1671 204 L 1679 201 L 1687 200 L 1690 198 L 1702 195 L 1707 195 L 1710 193 L 1718 192 L 1728 188 L 1733 188 L 1736 186 L 1748 184 L 1759 180 L 1764 180 L 1767 178 L 1783 175 L 1790 172 L 1795 172 L 1802 169 L 1807 169 L 1823 164 L 1831 163 L 1835 161 L 1855 158 L 1859 156 L 1874 153 L 1887 152 L 1898 149 L 1900 150 L 1905 148 L 1922 147 L 1929 145 L 1939 145 L 1940 144 L 1942 145 L 1945 144 L 1962 144 L 1963 143 L 2016 144 L 2017 145 L 2032 146 L 2033 147 L 2045 148 L 2055 151 L 2070 153 L 2092 159 L 2123 170 L 2127 173 L 2130 173 L 2134 176 L 2139 177 L 2151 184 L 2163 189 L 2166 192 L 2170 193 L 2182 200 L 2219 225 L 2224 230 L 2227 231 L 2231 236 L 2229 237 L 2214 228 L 2195 220 L 2193 218 L 2186 216 L 2184 214 L 2170 209 L 2166 206 L 2163 206 L 2159 203 L 2111 187 L 2079 179 L 2074 179 L 2057 175 L 2051 175 L 2046 173 L 2044 174 L 2039 172 L 2038 173 L 2030 171 L 2027 172 L 2020 170 L 2018 171 L 2014 170 L 1982 170 L 1981 171 L 1952 172 L 1946 174 L 1944 173 L 1924 177 L 1922 176 L 1918 178 L 1900 180 L 1896 182 L 1880 185 L 1874 185 L 1871 187 L 1858 189 L 1830 197 L 1825 197 L 1822 199 L 1815 200 L 1811 202 L 1804 203 L 1793 207 L 1786 208 L 1782 210 L 1775 211 L 1771 213 L 1764 214 L 1716 228 L 1705 230 L 1701 232 L 1697 232 L 1685 236 L 1680 236 L 1677 238 L 1657 242 L 1653 244 L 1649 244 L 1631 249 L 1616 251 L 1607 254 L 1597 255 L 1591 257 L 1561 261 L 1560 262 L 1534 264 L 1533 265 L 1521 265 L 1520 266 L 1470 266 L 1469 265 L 1458 265 L 1457 264 L 1450 264 L 1436 261 L 1423 260 L 1401 255 L 1398 253 L 1394 253 L 1364 242 L 1338 229 L 1326 221 L 1308 205 L 1298 192 L 1289 172 L 1289 167 L 1287 160 Z M 2221 281 L 2219 282 L 2203 270 L 2190 262 L 2186 261 L 2183 258 L 2181 258 L 2157 245 L 2119 230 L 2071 218 L 2058 217 L 2046 214 L 2044 215 L 2043 214 L 2024 213 L 2023 212 L 2019 213 L 2017 212 L 1987 212 L 1986 213 L 1981 212 L 1972 214 L 1946 216 L 1925 220 L 1918 220 L 1914 222 L 1890 226 L 1885 228 L 1880 228 L 1877 230 L 1873 230 L 1864 233 L 1854 234 L 1851 236 L 1847 236 L 1810 247 L 1799 249 L 1795 251 L 1791 251 L 1788 253 L 1785 253 L 1760 261 L 1715 272 L 1689 277 L 1666 279 L 1665 280 L 1655 280 L 1654 281 L 1599 281 L 1598 280 L 1587 280 L 1586 278 L 1587 277 L 1597 277 L 1598 276 L 1608 276 L 1624 273 L 1631 273 L 1673 264 L 1677 262 L 1699 257 L 1702 255 L 1718 250 L 1721 250 L 1739 243 L 1775 232 L 1786 227 L 1795 225 L 1807 220 L 1811 220 L 1821 216 L 1824 216 L 1827 214 L 1831 214 L 1843 209 L 1847 209 L 1861 204 L 1866 204 L 1873 201 L 1891 198 L 1903 194 L 1929 190 L 1939 187 L 1941 188 L 1946 186 L 1949 187 L 1954 185 L 1957 186 L 1958 185 L 1980 184 L 1981 183 L 2011 183 L 2012 184 L 2035 185 L 2040 187 L 2042 186 L 2046 188 L 2048 187 L 2052 189 L 2058 189 L 2073 193 L 2077 193 L 2083 196 L 2087 196 L 2095 198 L 2097 200 L 2101 200 L 2121 209 L 2126 210 L 2136 216 L 2148 221 L 2151 224 L 2163 230 L 2179 241 L 2204 262 L 2217 275 Z M 1092 234 L 1091 236 L 1068 231 L 1047 229 L 1040 227 L 1039 228 L 1029 227 L 1020 225 L 1019 226 L 1016 225 L 1002 225 L 1001 224 L 948 224 L 947 225 L 934 225 L 933 226 L 931 225 L 930 226 L 904 228 L 898 230 L 860 235 L 841 240 L 826 242 L 822 244 L 817 244 L 809 247 L 796 249 L 731 265 L 708 269 L 695 273 L 675 276 L 654 281 L 624 285 L 617 287 L 610 287 L 609 288 L 578 290 L 577 291 L 559 291 L 558 292 L 552 292 L 551 291 L 546 291 L 545 292 L 514 291 L 512 292 L 511 291 L 493 291 L 492 290 L 455 288 L 454 287 L 439 286 L 438 285 L 439 282 L 441 283 L 497 282 L 498 281 L 525 280 L 533 278 L 542 278 L 557 275 L 559 276 L 565 274 L 579 273 L 584 271 L 589 271 L 600 268 L 606 268 L 616 265 L 625 264 L 629 262 L 633 262 L 651 257 L 664 255 L 672 252 L 685 250 L 707 243 L 719 241 L 726 238 L 730 238 L 745 233 L 749 233 L 757 230 L 765 229 L 768 227 L 776 226 L 779 224 L 787 223 L 790 221 L 799 220 L 806 217 L 811 217 L 823 213 L 833 212 L 836 210 L 842 210 L 853 207 L 864 206 L 869 204 L 877 204 L 882 202 L 884 203 L 885 202 L 914 200 L 915 199 L 924 199 L 925 198 L 928 199 L 930 198 L 932 199 L 937 198 L 960 199 L 962 198 L 970 200 L 980 200 L 981 201 L 983 200 L 989 202 L 991 201 L 992 202 L 1014 205 L 1030 209 L 1060 219 L 1079 227 Z M 260 90 L 263 75 L 270 60 L 276 51 L 293 35 L 307 28 L 322 25 L 338 26 L 352 32 L 358 36 L 367 45 L 373 54 L 378 66 L 380 76 L 379 89 L 373 103 L 360 116 L 354 119 L 348 119 L 347 120 L 342 118 L 343 116 L 351 114 L 356 111 L 360 107 L 366 95 L 366 80 L 364 76 L 364 73 L 360 66 L 350 56 L 341 51 L 333 49 L 322 49 L 314 51 L 300 59 L 294 65 L 285 82 L 283 91 L 283 107 L 286 118 L 290 127 L 295 134 L 310 149 L 325 159 L 340 166 L 342 168 L 375 180 L 387 182 L 395 185 L 397 184 L 408 187 L 431 189 L 432 190 L 433 189 L 437 190 L 478 190 L 486 188 L 490 189 L 496 187 L 499 188 L 508 186 L 516 186 L 522 184 L 532 184 L 539 182 L 545 182 L 550 180 L 562 179 L 573 176 L 579 176 L 598 171 L 600 172 L 604 170 L 629 166 L 637 163 L 656 160 L 675 155 L 709 150 L 720 147 L 726 147 L 731 145 L 739 145 L 764 140 L 798 137 L 807 135 L 809 137 L 807 139 L 781 142 L 775 144 L 769 144 L 743 149 L 739 151 L 728 152 L 695 160 L 687 163 L 662 168 L 654 171 L 649 171 L 637 174 L 626 178 L 616 179 L 596 184 L 566 188 L 565 189 L 551 190 L 545 192 L 543 191 L 537 193 L 535 192 L 529 194 L 527 193 L 518 195 L 490 196 L 489 197 L 479 197 L 478 198 L 463 198 L 462 199 L 456 198 L 455 199 L 443 199 L 442 200 L 400 200 L 393 198 L 390 199 L 389 198 L 381 198 L 376 196 L 363 195 L 358 193 L 354 193 L 341 188 L 338 188 L 332 186 L 330 184 L 324 183 L 320 180 L 317 180 L 293 166 L 277 150 L 265 130 L 260 110 Z M 1097 218 L 1098 217 L 1104 218 L 1120 224 L 1127 225 L 1130 227 L 1138 228 L 1151 233 L 1159 234 L 1163 236 L 1173 238 L 1176 240 L 1187 242 L 1194 245 L 1207 248 L 1213 251 L 1217 251 L 1224 254 L 1227 254 L 1233 257 L 1241 258 L 1248 261 L 1270 266 L 1288 272 L 1296 273 L 1304 276 L 1314 277 L 1323 280 L 1343 283 L 1348 285 L 1355 285 L 1373 289 L 1382 289 L 1383 290 L 1411 292 L 1412 293 L 1426 293 L 1427 294 L 1497 294 L 1498 293 L 1528 291 L 1546 288 L 1547 290 L 1502 305 L 1477 310 L 1472 312 L 1467 312 L 1454 315 L 1447 315 L 1446 316 L 1420 317 L 1419 318 L 1385 318 L 1384 317 L 1379 318 L 1378 317 L 1357 316 L 1356 315 L 1329 312 L 1319 309 L 1305 307 L 1297 304 L 1293 304 L 1283 300 L 1279 300 L 1257 292 L 1254 292 L 1239 287 L 1234 284 L 1231 284 L 1213 276 L 1208 275 L 1176 260 L 1174 260 L 1162 253 L 1158 252 L 1144 244 L 1142 244 L 1126 234 L 1112 228 L 1103 222 L 1099 221 Z M 979 315 L 978 294 L 979 289 L 985 276 L 996 264 L 1005 258 L 1009 257 L 1013 254 L 1023 251 L 1028 251 L 1033 249 L 1065 249 L 1066 250 L 1082 251 L 1111 258 L 1113 260 L 1117 260 L 1129 265 L 1135 266 L 1160 276 L 1159 278 L 1157 278 L 1153 276 L 1136 272 L 1133 270 L 1129 270 L 1125 268 L 1121 268 L 1108 264 L 1103 264 L 1084 260 L 1072 260 L 1071 259 L 1045 260 L 1040 262 L 1032 263 L 1015 270 L 1003 280 L 999 286 L 996 294 L 996 308 L 998 315 L 1003 323 L 1011 330 L 1017 333 L 1024 335 L 1035 335 L 1043 333 L 1051 329 L 1058 323 L 1060 319 L 1062 320 L 1059 329 L 1052 337 L 1040 344 L 1028 347 L 1013 346 L 999 340 L 985 327 Z M 2215 199 L 2217 198 L 2252 215 L 2254 217 L 2256 217 L 2260 220 L 2262 220 L 2304 240 L 2322 246 L 2324 248 L 2343 253 L 2356 252 L 2362 249 L 2366 245 L 2368 240 L 2368 236 L 2366 231 L 2359 224 L 2350 223 L 2343 226 L 2341 229 L 2339 228 L 2339 226 L 2344 221 L 2352 218 L 2360 219 L 2365 221 L 2374 231 L 2376 237 L 2376 246 L 2372 255 L 2365 262 L 2352 267 L 2334 267 L 2320 264 L 2314 261 L 2306 259 L 2274 242 L 2248 224 L 2244 220 L 2234 214 L 2230 210 L 2227 209 L 2226 207 L 2216 201 Z M 701 231 L 700 233 L 624 252 L 550 266 L 544 266 L 529 269 L 521 269 L 520 270 L 510 270 L 509 271 L 488 272 L 487 273 L 474 273 L 473 274 L 459 274 L 458 275 L 429 276 L 425 274 L 426 272 L 443 272 L 444 271 L 466 270 L 467 269 L 486 268 L 487 267 L 550 260 L 551 259 L 585 254 L 591 252 L 596 252 L 607 249 L 612 249 L 637 244 L 642 242 L 665 238 L 697 230 Z M 1035 198 L 1039 197 L 1040 198 L 1072 203 L 1075 205 L 1075 211 L 1072 212 L 1061 207 L 1039 200 L 1036 200 Z M 2346 234 L 2350 231 L 2354 231 L 2358 237 L 2357 241 L 2354 243 L 2345 242 L 2344 240 L 2346 237 Z M 1107 244 L 1112 240 L 1126 248 L 1127 250 L 1124 251 L 1117 248 L 1110 247 Z M 1140 218 L 1144 217 L 1153 220 L 1157 220 L 1161 222 L 1168 223 L 1169 225 L 1165 226 L 1141 220 Z M 1228 241 L 1231 240 L 1245 244 L 1246 246 L 1243 247 L 1239 245 L 1229 243 Z M 1131 216 L 1135 215 L 1139 216 L 1140 218 L 1136 219 L 1132 218 Z M 1516 278 L 1517 277 L 1522 277 L 1523 279 L 1522 280 L 1517 280 Z M 1177 227 L 1180 226 L 1183 227 L 1184 229 L 1181 230 L 1178 229 Z M 809 136 L 810 135 L 815 135 L 816 137 L 815 138 L 810 138 Z M 425 283 L 430 282 L 431 284 L 426 285 Z M 536 199 L 541 198 L 542 200 L 537 201 Z M 849 132 L 854 131 L 855 133 L 850 134 Z" fill="#050505" fill-rule="evenodd"/>
  <path d="M 1337 257 L 1274 229 L 1206 201 L 1160 184 L 1120 171 L 1093 164 L 1044 154 L 972 145 L 954 145 L 953 144 L 889 145 L 819 153 L 746 167 L 631 195 L 543 214 L 449 227 L 418 230 L 404 230 L 403 231 L 364 232 L 363 233 L 283 232 L 282 231 L 245 229 L 189 222 L 107 206 L 58 193 L 33 184 L 99 210 L 135 222 L 183 235 L 235 246 L 285 254 L 334 259 L 426 260 L 427 259 L 444 259 L 445 258 L 457 258 L 498 254 L 578 242 L 656 226 L 768 199 L 849 184 L 882 180 L 924 178 L 925 177 L 985 178 L 1025 182 L 1051 187 L 1057 187 L 1132 202 L 1188 216 L 1225 227 L 1248 232 L 1285 243 L 1304 247 Z M 1288 146 L 1289 167 L 1293 180 L 1303 198 L 1321 216 L 1329 222 L 1362 240 L 1388 250 L 1423 259 L 1459 264 L 1519 265 L 1520 264 L 1551 262 L 1591 256 L 1669 239 L 1866 186 L 1930 174 L 1979 169 L 2017 169 L 2058 174 L 2108 185 L 2161 203 L 2179 212 L 2193 217 L 2237 240 L 2209 219 L 2180 200 L 2161 189 L 2125 172 L 2088 159 L 2069 154 L 2038 148 L 2000 144 L 1942 145 L 1906 149 L 1864 156 L 1771 178 L 1706 196 L 1633 214 L 1548 230 L 1503 235 L 1434 234 L 1387 225 L 1359 215 L 1340 204 L 1328 194 L 1321 186 L 1314 174 L 1310 162 L 1310 146 L 1313 136 L 1318 126 L 1326 117 L 1336 111 L 1346 108 L 1355 108 L 1365 111 L 1370 114 L 1381 125 L 1386 137 L 1386 148 L 1384 155 L 1380 162 L 1371 169 L 1361 172 L 1361 173 L 1375 172 L 1384 167 L 1391 160 L 1395 153 L 1398 143 L 1397 124 L 1389 107 L 1378 96 L 1372 92 L 1363 88 L 1347 86 L 1334 88 L 1320 94 L 1314 98 L 1303 109 L 1293 127 Z M 2225 285 L 2206 265 L 2188 249 L 2166 233 L 2132 214 L 2103 202 L 2080 195 L 2041 187 L 2013 184 L 1966 185 L 1908 194 L 1858 206 L 1817 218 L 1754 239 L 1751 241 L 1685 262 L 1624 275 L 1598 278 L 1584 278 L 1601 280 L 1652 280 L 1688 276 L 1736 266 L 1847 235 L 1919 219 L 1971 212 L 2021 211 L 2052 214 L 2080 219 L 2105 225 L 2133 234 L 2179 255 L 2198 266 Z M 1093 235 L 1057 219 L 1026 209 L 1008 205 L 959 199 L 912 200 L 884 203 L 841 210 L 791 222 L 672 254 L 584 273 L 543 279 L 500 282 L 499 283 L 473 283 L 472 284 L 419 283 L 467 288 L 514 290 L 515 291 L 554 291 L 555 290 L 575 290 L 576 289 L 608 287 L 680 275 L 861 234 L 921 225 L 945 224 L 946 223 L 1018 224 L 1069 230 Z M 260 97 L 261 111 L 267 132 L 279 151 L 292 164 L 322 181 L 341 188 L 369 195 L 403 199 L 438 199 L 439 198 L 459 198 L 476 196 L 494 196 L 559 189 L 612 180 L 720 153 L 764 144 L 834 134 L 886 130 L 848 132 L 807 137 L 787 138 L 691 153 L 563 180 L 530 185 L 474 191 L 434 191 L 433 190 L 413 189 L 378 182 L 340 168 L 310 150 L 299 140 L 289 127 L 282 108 L 282 90 L 286 76 L 292 66 L 301 57 L 317 49 L 334 48 L 349 54 L 358 62 L 366 76 L 367 94 L 363 104 L 357 111 L 343 118 L 354 118 L 362 114 L 369 107 L 376 95 L 379 81 L 378 70 L 376 63 L 368 48 L 358 37 L 352 33 L 337 27 L 320 26 L 305 30 L 289 39 L 278 50 L 270 62 L 263 79 Z M 1089 215 L 1122 231 L 1133 238 L 1174 259 L 1226 281 L 1290 302 L 1342 313 L 1381 317 L 1421 317 L 1422 316 L 1445 315 L 1471 311 L 1502 304 L 1554 287 L 1521 293 L 1500 294 L 1499 295 L 1476 295 L 1475 296 L 1410 294 L 1360 288 L 1288 273 L 1227 256 L 1183 242 L 1113 223 Z M 979 310 L 982 320 L 987 328 L 1001 340 L 1014 345 L 1021 346 L 1033 345 L 1048 339 L 1054 334 L 1060 324 L 1062 317 L 1060 322 L 1053 329 L 1036 336 L 1024 336 L 1017 334 L 1008 329 L 1002 323 L 995 309 L 995 294 L 1002 280 L 1009 273 L 1020 266 L 1046 259 L 1055 258 L 1083 259 L 1117 265 L 1169 280 L 1138 268 L 1091 254 L 1067 250 L 1034 250 L 1011 256 L 999 263 L 989 272 L 980 290 Z M 2206 193 L 2271 239 L 2286 248 L 2314 261 L 2335 266 L 2352 266 L 2359 264 L 2366 260 L 2371 255 L 2374 249 L 2375 237 L 2373 231 L 2363 221 L 2357 219 L 2351 219 L 2345 221 L 2340 226 L 2339 231 L 2344 224 L 2349 222 L 2356 222 L 2363 226 L 2369 235 L 2369 241 L 2367 245 L 2362 250 L 2352 254 L 2337 253 L 2319 247 L 2281 231 Z" fill="#9FC9F4" fill-rule="evenodd"/>
</svg>
